<svg viewBox="0 0 976 674" fill="none" xmlns="http://www.w3.org/2000/svg">
<path d="M970.5 466.5H6C53.2 649.7 166.333 678.5 217 670C317.667 672.5 560.9 676 728.5 670C896.1 664 959.667 531.833 970.5 466.5Z" fill="white"/>
<path d="M500 413C500 558.803 388.071 618.5 250 618.5C111.929 618.5 0 558.803 0 413C0 267.197 111.929 149 250 149C388.071 149 500 267.197 500 413Z" fill="white"/>
<path d="M764 264C764 409.803 652.071 528 514 528C375.929 528 264 409.803 264 264C264 118.197 375.929 0 514 0C652.071 0 764 118.197 764 264Z" fill="white"/>
<path d="M976 401C976 546.803 864.071 665 726 665C587.929 665 476 546.803 476 401C476 255.197 587.929 137 726 137C864.071 137 976 255.197 976 401Z" fill="white"/>
</svg>
